<svg xmlns="http://www.w3.org/2000/svg" width="1600" height="900" viewBox="0 0 1600 900" fill="none">
  <defs>
    <linearGradient id="bg" x1="0" y1="0" x2="1" y2="1">
      <stop offset="0%" stop-color="#111317"/>
      <stop offset="100%" stop-color="#1f242d"/>
    </linearGradient>
  </defs>
  <rect width="1600" height="900" fill="url(#bg)"/>
  <g opacity="0.22" stroke="#22c55e" stroke-width="1">
    <path d="M0 120 H1600"/>
    <path d="M0 240 H1600"/>
    <path d="M0 360 H1600"/>
    <path d="M0 480 H1600"/>
    <path d="M0 600 H1600"/>
    <path d="M0 720 H1600"/>
    <path d="M0 840 H1600"/>
    <path d="M120 0 V900"/>
    <path d="M320 0 V900"/>
    <path d="M520 0 V900"/>
    <path d="M720 0 V900"/>
    <path d="M920 0 V900"/>
    <path d="M1120 0 V900"/>
    <path d="M1320 0 V900"/>
    <path d="M1520 0 V900"/>
  </g>
  <g opacity="0.25">
    <circle cx="300" cy="180" r="90" fill="#22c55e"/>
    <circle cx="1320" cy="720" r="120" fill="#22c55e"/>
    <circle cx="980" cy="220" r="55" fill="#22c55e"/>
  </g>
</svg>

